#N canvas 223 104 295 672 10;
#X obj 12 217 players~;
#X obj 12 200 tgl 15 0 empty empty empty 17 7 0 10 -258113 -1 -1 0
1;
#X obj 12 40 s~ iR;
#X obj 131 40 s~ iL;
#X obj 12 1 ehu/in~;
#X obj 11 237 ehu/vol~;
#X obj 10 525 ehu/plot;
#X obj 9 483 ehu/out~;
#X obj 10 461 ehu/limiter~;
#X obj 10 276 s~ l;
#X obj 121 278 s~ r;
#X obj 10 440 r~ lo;
#X obj 79 441 r~ lo;
#X obj 214 -3 ehu/dsp;
#X obj 10 304 ehu/plot;
#X obj 146 525 ehu/plot;
#X obj 145 304 ehu/plot;
#X obj 11 66 ehu/plot;
#X obj 149 66 ehu/plot;
#X connect 0 0 5 0;
#X connect 0 1 5 1;
#X connect 1 0 0 0;
#X connect 4 0 2 0;
#X connect 4 0 17 0;
#X connect 4 1 3 0;
#X connect 4 1 18 0;
#X connect 5 0 9 0;
#X connect 5 0 14 0;
#X connect 5 1 10 0;
#X connect 5 1 16 0;
#X connect 7 0 6 0;
#X connect 7 1 15 0;
#X connect 8 0 7 0;
#X connect 8 1 7 1;
#X connect 11 0 8 0;
#X connect 12 0 8 1;
