#N canvas 523 83 498 379 10;
#X obj 146 223 tgl 20 1 keyboard empty keyboard_ON/OFF 4 -6 0 8 -258699
-1 -1 1 1;
#N canvas 15 258 838 395 keys 0;
#X obj 14 18 key;
#X obj 42 61 nbx 5 14 -1e+37 1e+37 0 0 empty empty empty 0 -6 0 10
-262144 -1 -1 0 256;
#X obj 16 214 keyname;
#X obj 24 329 bng 15 250 50 0 empty empty empty 0 -6 0 8 -262144 -1
-1;
#X obj 65 329 bng 15 250 50 0 empty empty empty 0 -6 0 8 -262144 -1
-1;
#X obj 103 329 bng 15 250 50 0 empty empty empty 0 -6 0 8 -262144 -1
-1;
#X obj 142 332 bng 15 250 50 0 empty empty empty 0 -6 0 8 -262144 -1
-1;
#X obj 286 56 bng 15 250 50 0 empty empty empty 0 -6 0 8 -262144 -1
-1;
#X obj 314 57 bng 15 250 50 0 empty empty empty 0 -6 0 8 -262144 -1
-1;
#X obj 341 57 bng 15 250 50 0 empty empty empty 0 -6 0 8 -262144 -1
-1;
#X obj 364 57 bng 15 250 50 0 empty empty empty 0 -6 0 8 -262144 -1
-1;
#X obj 402 59 bng 15 250 50 0 empty empty empty 0 -6 0 8 -262144 -1
-1;
#X obj 440 62 bng 15 250 50 0 empty empty empty 0 -6 0 8 -262144 -1
-1;
#X obj 473 60 bng 15 250 50 0 empty empty empty 0 -6 0 8 -262144 -1
-1;
#X obj 510 59 bng 15 250 50 0 empty empty empty 0 -6 0 8 -262144 -1
-1;
#X obj 546 59 bng 15 250 50 0 empty empty empty 0 -6 0 8 -262144 -1
-1;
#X obj 582 59 bng 15 250 50 0 empty empty empty 0 -6 0 8 -262144 -1
-1;
#X obj 622 59 bng 15 250 50 0 empty empty empty 0 -6 0 8 -262144 -1
-1;
#X obj 302 22 sel 32 113 119 101 114 116 121 117 105 111 112 10;
#X obj 486 203 bng 15 250 50 0 empty empty empty 0 -6 0 8 -262144 -1
-1;
#X obj 510 204 bng 15 250 50 0 empty empty empty 0 -6 0 8 -262144 -1
-1;
#X obj 536 202 bng 15 250 50 0 empty empty empty 0 -6 0 8 -262144 -1
-1;
#X obj 561 200 bng 15 250 50 0 empty empty empty 0 -6 0 8 -262144 -1
-1;
#X obj 584 204 bng 15 250 50 0 empty empty empty 0 -6 0 8 -262144 -1
-1;
#X obj 606 203 bng 15 250 50 0 empty empty empty 0 -6 0 8 -262144 -1
-1;
#X obj 631 204 bng 15 250 50 0 empty empty empty 0 -6 0 8 -262144 -1
-1;
#X obj 652 204 bng 15 250 50 0 empty empty empty 0 -6 0 8 -262144 -1
-1;
#X obj 690 203 bng 15 250 50 0 empty empty empty 0 -6 0 8 -262144 -1
-1;
#X obj 727 199 bng 15 250 50 0 empty empty empty 0 -6 0 8 -262144 -1
-1;
#X text 718 64 enter;
#X obj 464 155 sel 32 97 115 100 102 103 104 106 107 108 122 120 99
118 98 110 109;
#X text 302 0 q - p;
#X text 26 0 1 - 0 -;
#X text 465 135 a - l;
#X obj 691 102 s autoloop;
#X obj 307 100 s kq;
#X obj 403 94 s kr;
#X obj 623 94 s kp;
#X obj 581 88 s ko;
#X obj 691 66 bng 15 250 50 0 empty empty empty 0 -6 0 8 -262144 -1
-1;
#X obj 559 284 s kf;
#X obj 488 279 s ka;
#X obj 690 259 i;
#X obj 724 260 + 1;
#X obj 690 279 select 3;
#X obj 735 299 s kl;
#X msg 658 279 0;
#X obj 14 115 s k1;
#X obj 44 115 s k2;
#X obj 74 115 s k3;
#X obj 104 115 s k4;
#X obj 134 115 s k5;
#X obj 164 115 s k6;
#X obj 194 115 s k7;
#X obj 224 115 s k8;
#X obj 14 80 sel 49 50 51 52 53 54 55 56 57 48;
#X obj 21 358 s vol+;
#X obj 68 358 s vol-;
#X obj 25 306 sel Up Down Left Right Control_L Shift_L Alt_L;
#X text 732 315 0-1-2;
#X text 35 196 arrows etc...;
#X symbolatom 73 284 10 0 0 0 - - -, f 10;
#X obj 181 358 s ctl;
#X obj 59 22 tgl 15 0 empty empty empty 0 -6 0 10 -262144 -1 -1 1 1
;
#X obj 14 41 spigot 0;
#X obj 59 3 r keyboard;
#X obj 101 236 tgl 15 0 empty empty empty 0 -6 0 10 -262144 -1 -1 1
1;
#X obj 55 255 spigot 0;
#X obj 101 217 r keyboard;
#X connect 0 0 64 0;
#X connect 1 0 55 0;
#X connect 2 1 67 0;
#X connect 3 0 56 0;
#X connect 4 0 57 0;
#X connect 8 0 35 0;
#X connect 11 0 36 0;
#X connect 16 0 38 0;
#X connect 17 0 37 0;
#X connect 18 0 7 0;
#X connect 18 1 8 0;
#X connect 18 2 9 0;
#X connect 18 3 10 0;
#X connect 18 4 11 0;
#X connect 18 5 12 0;
#X connect 18 6 13 0;
#X connect 18 7 14 0;
#X connect 18 8 15 0;
#X connect 18 9 16 0;
#X connect 18 10 17 0;
#X connect 18 11 39 0;
#X connect 18 12 30 0;
#X connect 19 0 41 0;
#X connect 22 0 40 0;
#X connect 27 0 42 0;
#X connect 30 1 19 0;
#X connect 30 2 20 0;
#X connect 30 3 21 0;
#X connect 30 4 22 0;
#X connect 30 5 23 0;
#X connect 30 6 24 0;
#X connect 30 7 25 0;
#X connect 30 8 26 0;
#X connect 30 9 27 0;
#X connect 30 10 28 0;
#X connect 39 0 34 0;
#X connect 42 0 43 0;
#X connect 42 0 44 0;
#X connect 43 0 42 1;
#X connect 44 0 46 0;
#X connect 44 1 45 0;
#X connect 46 0 42 0;
#X connect 55 0 47 0;
#X connect 55 1 48 0;
#X connect 55 2 49 0;
#X connect 55 3 50 0;
#X connect 55 4 51 0;
#X connect 55 5 52 0;
#X connect 55 6 53 0;
#X connect 55 7 54 0;
#X connect 55 10 18 0;
#X connect 58 0 3 0;
#X connect 58 1 4 0;
#X connect 58 2 5 0;
#X connect 58 3 6 0;
#X connect 58 4 62 0;
#X connect 63 0 64 1;
#X connect 64 0 55 0;
#X connect 65 0 63 0;
#X connect 66 0 67 1;
#X connect 67 0 61 0;
#X connect 67 0 58 0;
#X connect 68 0 66 0;
#X restore 82 244 pd keys;
#N canvas 309 351 450 300 gpan 0;
#X obj 90 52 r gpan;
#X obj 181 69 s 1rpan;
#X obj 181 87 s 2rpan;
#X obj 181 105 s 3rpan;
#X obj 181 123 s 4rpan;
#X obj 181 141 s 5rpan;
#X obj 181 159 s 6rpan;
#X obj 181 177 s 7rpan;
#X obj 181 195 s 8rpan;
#X connect 0 0 1 0;
#X connect 0 0 2 0;
#X connect 0 0 3 0;
#X connect 0 0 4 0;
#X connect 0 0 5 0;
#X connect 0 0 6 0;
#X connect 0 0 7 0;
#X connect 0 0 8 0;
#X restore 11 223 pd gpan;
#N canvas 255 299 450 300 gpitch 0;
#X obj 91 52 r gpitch;
#X obj 181 69 s 1rpitch;
#X obj 181 87 s 2rpitch;
#X obj 181 105 s 3rpitch;
#X obj 181 122 s 4rpitch;
#X obj 181 141 s 5rpitch;
#X obj 181 159 s 6rpitch;
#X obj 180 177 s 7rpitch;
#X obj 181 195 s 8rpitch;
#X connect 0 0 1 0;
#X connect 0 0 2 0;
#X connect 0 0 3 0;
#X connect 0 0 4 0;
#X connect 0 0 5 0;
#X connect 0 0 6 0;
#X connect 0 0 7 0;
#X connect 0 0 8 0;
#X restore 11 244 pd gpitch;
#N canvas 37 82 450 300 gvol 0;
#X obj 181 69 s 1rvol;
#X obj 181 87 s 2rvol;
#X obj 181 105 s 3rvol;
#X obj 181 122 s 4rvol;
#X obj 181 141 s 5rvol;
#X obj 181 159 s 6rvol;
#X obj 180 177 s 7rvol;
#X obj 181 195 s 8rvol;
#X obj 91 52 r gvol;
#X connect 8 0 0 0;
#X connect 8 0 1 0;
#X connect 8 0 2 0;
#X connect 8 0 3 0;
#X connect 8 0 4 0;
#X connect 8 0 5 0;
#X connect 8 0 6 0;
#X connect 8 0 7 0;
#X restore 66 223 pd gvol;
#N canvas 245 121 453 575 SETTINGS 0;
#X obj 134 110 s VOL;
#X text 181 87 VOL MASTER;
#X text 181 135 VOL TIZAS DIRECTO;
#X obj 133 157 s VOL1;
#X obj 132 213 s VOL2;
#X text 181 191 VOL TIZAS FONDO;
#X obj 85 53 loadbang;
#X text 168 18 ----SETTINGS----;
#X obj 122 259 s SPEED;
#X text 181 238 PITCH TIZAS FONDO;
#X msg 122 237 0.1;
#X obj 85 14 bng 15 250 50 0 empty empty empty 17 7 0 10 -262144 -1
-1;
#X msg 134 88 1;
#X msg 133 135 0.7;
#X msg 132 191 0.9;
#X text 152 404 ARCHIVO SONIDO FONDO;
#X obj 117 364 s VOL4;
#X text 181 343 VOL SONIDO ARCHIVO FONDO;
#X obj 124 512 s SILENCE;
#X msg 124 490 120;
#X text 159 489 TIEMPO ESPERA DE SILENCIO;
#X obj 62 430 s ARCHIVO_FONDO;
#X msg 63 407 elgoibar.wav;
#X msg 118 343 0.4;
#X connect 6 0 12 0;
#X connect 6 0 13 0;
#X connect 6 0 14 0;
#X connect 6 0 10 0;
#X connect 6 0 22 0;
#X connect 6 0 23 0;
#X connect 6 0 19 0;
#X connect 10 0 8 0;
#X connect 12 0 0 0;
#X connect 13 0 3 0;
#X connect 14 0 4 0;
#X connect 19 0 18 0;
#X connect 22 0 21 0;
#X connect 23 0 16 0;
#X restore 11 265 pd SETTINGS;
#X text 92 263 valores iniciales aqui;
#X obj 5 1 cnv 15 455 202 empty empty empty 20 5 0 12 -195568 -66577
0;
#X obj 5 68 cnv 15 445 15 1bws empty empty 20 12 0 14 -233017 -66577
0;
#X obj 5 101 cnv 15 445 15 3backwds empty empty 20 12 0 14 -233017
-66577 0;
#X obj 5 135 cnv 15 445 15 5backwds empty empty 20 12 0 14 -233017
-66577 0;
#X obj 5 168 cnv 15 445 15 7backwds empty empty 20 12 0 14 -233017
-66577 0;
#X obj 243 66 tgl 16 0 1l empty 1 20 8 0 10 -233017 -1 -1 1 1;
#X obj 243 83 tgl 16 0 2l empty 2 20 8 0 10 -233017 -1 -1 1 1;
#X obj 243 100 tgl 16 0 3l empty 3 20 8 0 10 -233017 -1 -1 1 1;
#X obj 243 117 tgl 16 0 4l empty 4 20 8 0 10 -233017 -1 -1 1 1;
#X obj 243 134 tgl 16 1 5l empty 5 20 8 0 10 -233017 -1 -1 1 1;
#X obj 243 151 tgl 16 1 6l empty 6 20 8 0 10 -233017 -1 -1 1 1;
#X obj 243 168 tgl 16 1 7l empty 7 20 8 0 10 -233017 -1 -1 1 1;
#X obj 243 185 tgl 16 1 8l empty 8 20 8 0 10 -233017 -1 -1 1 1;
#X obj 243 48 tgl 15 1 empty ka available 0 -6 0 9 -232576 -1 -1 1
1;
#X obj 274 65 vradio 17 1 0 8 empty l empty 0 -6 0 8 -262144 -1 -1
0;
#X msg 230 2 1;
#X obj 331 65 vradio 17 1 0 8 empty s empty 0 -6 0 8 -262144 -1 -1
0;
#X msg 258 2 0;
#X obj 361 67 nbx 6 14 0 8 0 0 1s 1seq 1 -10 6 0 10 -233017 -1 -1 1
256;
#X obj 361 84 nbx 6 14 0 8 0 0 2s empty 2 -10 6 0 10 -233017 -1 -1
1 256;
#X obj 361 101 nbx 6 14 0 8 0 0 3s empty 3 -10 6 0 10 -233017 -1 -1
1 256;
#X obj 361 118 nbx 6 14 0 8 0 0 4s empty 4 -10 6 0 10 -233017 -1 -1
1 256;
#X obj 361 134 nbx 6 14 0 8 0 0 5s empty 5 -10 6 0 10 -233017 -1 -1
1 256;
#X obj 361 151 nbx 6 14 0 8 0 0 6s empty 6 -10 6 0 10 -233017 -1 -1
1 256;
#X obj 361 168 nbx 6 14 0 8 0 0 7s empty 7 -10 6 0 10 -233017 -1 -1
1 256;
#X obj 361 185 nbx 6 14 0 8 0 0 8s empty 8 -10 6 0 10 -233017 -1 -1
1 256;
#X obj 212 3 bng 15 250 50 0 empty empty empty -30 8 0 9 -262144 -1
-1;
#X obj 215 66 tgl 16 1 1pause k1 empty 20 8 0 10 -233017 -1 -1 0 1
;
#X obj 215 83 tgl 16 1 2pause k2 empty 20 8 0 10 -233017 -1 -1 0 1
;
#X obj 215 100 tgl 16 1 3pause k3 empty 20 8 0 10 -233017 -1 -1 1 1
;
#X obj 215 117 tgl 16 1 4pause k4 empty 20 8 0 10 -233017 -1 -1 1 1
;
#X obj 215 134 tgl 16 1 5pause k5 empty 20 8 0 10 -233017 -1 -1 1 1
;
#X obj 215 151 tgl 16 1 6pause k6 empty 20 8 0 10 -233017 -1 -1 1 1
;
#X obj 215 168 tgl 16 1 7pause k7 empty 20 8 0 10 -233017 -1 -1 1 1
;
#X obj 215 185 tgl 16 1 8pause k8 empty 20 8 0 10 -233017 -1 -1 1 1
;
#X obj 215 48 tgl 15 1 empty kp play 1 -6 0 9 -232576 -1 -1 1 1;
#X obj 189 66 bng 15 250 50 0 1flush empty empty 18 6 0 8 -262144 -1
-1;
#X obj 189 83 bng 15 250 50 0 2flush empty empty 18 6 0 8 -262144 -1
-1;
#X obj 189 100 bng 15 250 50 0 3flush empty empty 18 6 0 8 -262144
-1 -1;
#X obj 189 117 bng 15 250 50 0 4flush empty empty 18 6 0 8 -262144
-1 -1;
#X obj 189 134 bng 15 250 50 0 5flush empty empty 18 6 0 8 -262144
-1 -1;
#X obj 189 151 bng 15 250 50 0 6flush empty empty 18 6 0 8 -262144
-1 -1;
#X obj 189 168 bng 15 250 50 0 7flush empty empty 18 6 0 8 -262144
-1 -1;
#X obj 189 185 bng 15 250 50 0 8flush empty empty 18 6 0 8 -262144
-1 -1;
#X obj 189 48 bng 15 250 50 0 empty kf flush -5 -6 0 9 -232576 -1 -1
;
#X floatatom 34 49 5 0 0 2 pitch - gpitch, f 5;
#X floatatom 115 49 5 0 1 2 pan - gpan, f 5;
#X obj 162 48 bng 15 250 50 0 empty kr reset -5 -6 0 9 -232576 -1 -1
;
#X floatatom 34 68 5 0 0 2 - 1rpitch 1pitch, f 5;
#X obj 162 66 bng 15 250 50 0 1reset empty empty 0 -6 0 8 -262144 -1
-1;
#X floatatom 34 84 5 0 0 2 - 2rpitch 2pitch, f 5;
#X obj 162 83 bng 15 250 50 0 2reset empty empty 0 -6 0 8 -262144 -1
-1;
#X floatatom 34 101 5 0 0 2 - 3rpitch 3pitch, f 5;
#X obj 162 100 bng 15 250 50 0 3reset empty empty 0 -6 0 8 -262144
-1 -1;
#X floatatom 34 117 5 0 0 2 - 4rpitch 4pitch, f 5;
#X obj 162 117 bng 15 250 50 0 4reset empty empty 0 -6 0 8 -262144
-1 -1;
#X floatatom 34 134 5 0 0 2 - 5rpitch 5pitch, f 5;
#X obj 162 134 bng 15 250 50 0 5reset empty empty 0 -6 0 8 -262144
-1 -1;
#X floatatom 34 151 5 0 0 2 - 6rpitch 6pitch, f 5;
#X obj 162 151 bng 15 250 50 0 6reset empty empty 0 -6 0 8 -262144
-1 -1;
#X floatatom 34 167 5 0 0 2 - 7rpitch 7pitch, f 5;
#X obj 162 168 bng 15 250 50 0 7reset empty empty 0 -6 0 8 -262144
-1 -1;
#X floatatom 34 185 5 0 0 2 - 8rpitch 8pitch, f 5;
#X obj 162 185 bng 15 250 50 0 8reset empty empty 0 -6 0 8 -262144
-1 -1;
#X msg 115 19 0.5;
#X floatatom 75 49 5 0 0 2 volume - gvol, f 5;
#X floatatom 75 68 5 0 0 2 - 1rvol 1vol, f 5;
#X floatatom 75 84 5 0 0 2 - 2rvol 2vol, f 5;
#X floatatom 75 101 5 0 0 2 - 3rvol 3vol, f 5;
#X floatatom 75 117 5 0 0 2 - 4rvol 4vol, f 5;
#X floatatom 75 134 5 0 0 2 - 5rvol 5vol, f 5;
#X floatatom 75 151 5 0 0 2 - 6rvol 6vol, f 5;
#X floatatom 75 167 5 0 0 2 - 7rvol 7vol, f 5;
#X floatatom 75 185 5 0 0 2 - 8rvol 8vol, f 5;
#X obj 312 17 tgl 45 0 empty autoloop sample 0 -6 0 10 -258699 -1 -1
0 1;
#X obj 155 2 loadbang;
#X obj 75 19 tgl 15 0 empty empty empty 0 -6 0 8 -262144 -1 -1 1 1
;
#X msg 34 19 1;
#X obj 361 48 nbx 5 14 0.01 1e+37 0 0 empty empty timers 0 -6 0 10
-232576 -1 -1 1 256;
#X obj 118 69 hsl 30 12 0 1 0 0 1pan 1rpan empty -2 -6 0 8 -262144
-1 -1 1450 1;
#X obj 118 85 hsl 30 12 0 1 0 0 2pan 2rpan empty -2 -6 0 8 -262144
-1 -1 1450 1;
#X obj 118 102 hsl 30 12 0 1 0 0 3pan 3rpan empty -2 -6 0 8 -262144
-1 -1 1450 1;
#X obj 118 119 hsl 30 12 0 1 0 0 4pan 4rpan empty -2 -6 0 8 -262144
-1 -1 1450 1;
#X obj 118 135 hsl 30 12 0 1 0 0 5pan 5rpan empty -2 -6 0 8 -262144
-1 -1 1450 1;
#X obj 118 152 hsl 30 12 0 1 0 0 6pan 6rpan empty -2 -6 0 8 -262144
-1 -1 1450 1;
#X obj 118 169 hsl 30 12 0 1 0 0 7pan 7rpan empty -2 -6 0 8 -262144
-1 -1 1450 1;
#X obj 118 187 hsl 30 12 0 1 0 0 8pan 8rpan empty -2 -6 0 8 -262144
-1 -1 1450 1;
#X msg 429 64 6.5;
#X msg 429 81 4.3;
#X msg 429 98 5.4;
#X msg 429 115 2.2;
#X msg 429 149 6.2;
#X msg 429 166 3.7;
#X msg 429 183 7.1;
#X msg 429 132 1.8;
#N canvas 0 50 450 300 (subpatch) 0;
#X array . 2 float 0;
#X coords 0 8.5 1 0.5 40 136 1;
#X restore 291 64 graph;
#X obj 429 38 bng 24 250 50 0 empty empty empty 0 -6 0 8 -260097 -1
-1;
#X obj 95 19 bng 15 250 50 0 empty empty empty 0 -6 0 8 -262144 -1
-1;
#X text 31 -1 LOOPERS;
#X msg 73 -2 -1;
#X obj 10 48 tgl 15 1 empty kb bkwds 1 -6 0 9 -232576 -1 -1 1 1;
#X text 427 22 LOAD;
#X obj 10 68 tgl 15 1 1backwds empty empty 20 8 0 10 -233017 -1 -1
1 1;
#X obj 10 85 tgl 15 1 2backwds empty empty 20 8 0 10 -233017 -1 -1
1 1;
#X obj 10 102 tgl 15 1 3backwds empty empty 20 8 0 10 -233017 -1 -1
1 1;
#X obj 10 119 tgl 15 1 4backwds empty empty 20 8 0 10 -233017 -1 -1
1 1;
#X obj 10 135 tgl 15 1 5backwds empty empty 20 8 0 10 -233017 -1 -1
1 1;
#X obj 10 152 tgl 15 1 6backwds empty empty 20 8 0 10 -233017 -1 -1
1 1;
#X obj 10 168 tgl 15 1 7backwds empty empty 20 8 0 10 -233017 -1 -1
1 1;
#X obj 10 185 tgl 15 1 8backwds empty empty 20 8 0 10 -233017 -1 -1
1 1;
#X obj 13 340 effects~;
#X obj 14 315 audioIO~;
#X obj 237 213 cnv 15 120 150 empty empty random 5 12 0 10 -203904
-66577 0;
#N canvas 316 180 306 295 rpans 0;
#X obj -66 94 inlet;
#X obj 120 27 inlet;
#X obj 168 108 inlet;
#X obj 47 184 rpan 8;
#X obj 47 164 rpan 7;
#X obj 47 145 rpan 6;
#X obj 46 126 rpan 5;
#X obj 47 107 rpan 4;
#X obj 47 88 rpan 3;
#X obj 47 69 rpan 2;
#X obj 47 50 rpan 1;
#X connect 0 0 3 0;
#X connect 0 0 4 0;
#X connect 0 0 5 0;
#X connect 0 0 6 0;
#X connect 0 0 7 0;
#X connect 0 0 8 0;
#X connect 0 0 9 0;
#X connect 0 0 10 0;
#X connect 1 0 3 1;
#X connect 1 0 4 1;
#X connect 1 0 5 1;
#X connect 1 0 6 1;
#X connect 1 0 7 1;
#X connect 1 0 8 1;
#X connect 1 0 9 1;
#X connect 1 0 10 1;
#X connect 2 0 3 2;
#X connect 2 0 4 2;
#X connect 2 0 6 2;
#X connect 2 0 8 2;
#X connect 2 0 9 2;
#X connect 2 0 10 2;
#X connect 2 0 7 2;
#X connect 2 0 5 2;
#X restore 245 309 pd rpans;
#X obj 245 292 tgl 15 0 empty empty pan 0 -6 0 8 -258113 -1 -1 0 1
;
#X floatatom 268 293 5 0 0 2 min_time - -, f 5;
#X floatatom 310 312 5 0 0 2 t_range - -, f 5;
#X floatatom 266 342 5 0 0 2 min - mi, f 5;
#X floatatom 301 341 5 0 0 2 range - pr, f 5;
#X obj 246 341 tgl 15 0 rptoogle empty pitch -15 -6 0 8 -262144 -1
-1 0 1;
#X obj 337 340 tgl 15 1 fy empty float 0 -6 0 8 -262144 -1 -1 1 1;
#X obj 244 241 tgl 15 0 empty empty vol -2 -6 0 8 -262144 -1 -1 0 1
;
#X floatatom 265 242 5 0 0 2 min_time - -, f 5;
#X floatatom 306 261 5 0 0 2 t_range - -, f 5;
#N canvas 318 157 306 295 rvol 0;
#X obj -66 94 inlet;
#X obj 120 27 inlet;
#X obj 168 108 inlet;
#X obj 47 50 rvol 1;
#X obj 47 69 rvol 2;
#X obj 47 88 rvol 3;
#X obj 47 107 rvol 4;
#X obj 47 126 rvol 5;
#X obj 46 145 rvol 6;
#X obj 47 164 rvol 7;
#X obj 47 183 rvol 8;
#X connect 0 0 3 0;
#X connect 0 0 4 0;
#X connect 0 0 5 0;
#X connect 0 0 6 0;
#X connect 0 0 7 0;
#X connect 0 0 8 0;
#X connect 0 0 9 0;
#X connect 0 0 10 0;
#X connect 1 0 3 1;
#X connect 1 0 4 1;
#X connect 1 0 5 1;
#X connect 1 0 6 1;
#X connect 1 0 7 1;
#X connect 1 0 8 1;
#X connect 1 0 9 1;
#X connect 1 0 10 1;
#X connect 2 0 3 2;
#X connect 2 0 4 2;
#X connect 2 0 5 2;
#X connect 2 0 7 2;
#X connect 2 0 9 2;
#X connect 2 0 10 2;
#X connect 2 0 6 2;
#X connect 2 0 8 2;
#X restore 244 258 pd rvol;
#X obj 368 283 line;
#X msg 368 262 1 10000;
#X obj 368 303 s 5rpitch;
#X msg 401 283 0.5 10000;
#N canvas 2 411 489 340 lua 0;
#X text 84 6 l -> next layer to rec to display. s -> next timer to
rec to display. r -> current timer's time for xrecord~;
#X obj 80 180 s s;
#X obj 54 180 s l;
#N canvas 384 296 629 464 l 0;
#X obj 116 58 t b f;
#X obj 186 57 t b f;
#X obj 258 57 t b f;
#X obj 317 55 t b f;
#X obj 380 54 t b f;
#X obj 440 49 t b f;
#X obj 504 53 t b f;
#X obj 184 221 outlet;
#X obj 183 153 pack f f f f f f f f;
#X obj 18 41 r 1l;
#X obj 116 39 r 2l;
#X obj 186 39 r 3l;
#X obj 258 38 r 4l;
#X obj 317 36 r 5l;
#X obj 381 35 r 6l;
#X obj 440 28 r 7l;
#X obj 503 26 r 8l;
#X connect 0 0 8 0;
#X connect 0 1 8 1;
#X connect 1 0 8 0;
#X connect 1 1 8 2;
#X connect 2 0 8 0;
#X connect 2 1 8 3;
#X connect 3 0 8 0;
#X connect 3 1 8 4;
#X connect 4 0 8 0;
#X connect 4 1 8 5;
#X connect 5 0 8 0;
#X connect 5 1 8 6;
#X connect 6 0 8 0;
#X connect 6 1 8 7;
#X connect 8 0 7 0;
#X connect 9 0 8 0;
#X connect 10 0 0 0;
#X connect 11 0 1 0;
#X connect 12 0 2 0;
#X connect 13 0 3 0;
#X connect 14 0 4 0;
#X connect 15 0 5 0;
#X connect 16 0 6 0;
#X restore 76 105 pd l;
#N canvas 2 242 643 415 s 0;
#X obj 116 58 t b f;
#X obj 186 57 t b f;
#X obj 258 57 t b f;
#X obj 317 55 t b f;
#X obj 380 54 t b f;
#X obj 440 49 t b f;
#X obj 509 57 t b f;
#X obj 197 241 outlet;
#X obj 195 180 pack f f f f f f f f;
#X obj 36 31 r 1s;
#X obj 116 39 r 2s;
#X obj 186 39 r 3s;
#X obj 258 38 r 4s;
#X obj 317 36 r 5s;
#X obj 380 33 r 6s;
#X obj 441 28 r 7s;
#X obj 503 26 r 8s;
#X connect 0 0 8 0;
#X connect 0 1 8 1;
#X connect 1 0 8 0;
#X connect 1 1 8 2;
#X connect 2 0 8 0;
#X connect 2 1 8 3;
#X connect 3 0 8 0;
#X connect 3 1 8 4;
#X connect 4 0 8 0;
#X connect 4 1 8 5;
#X connect 5 0 8 0;
#X connect 5 1 8 6;
#X connect 6 0 8 0;
#X connect 6 1 8 7;
#X connect 8 0 7 0;
#X connect 9 0 8 0;
#X connect 10 0 0 0;
#X connect 11 0 1 0;
#X connect 12 0 2 0;
#X connect 13 0 3 0;
#X connect 14 0 4 0;
#X connect 15 0 5 0;
#X connect 16 0 6 0;
#X restore 110 106 pd s;
#X obj 115 180 s r;
#X obj 65 77 metro 50;
#X obj 54 49 inlet;
#X obj 31 251 symbol;
#X text 98 274 send timer time to current layer this will start recoding
into its buffer;
#X text 63 207 index from 1;
#X msg 31 284 \; \$1 bang;
#X msg 31 231 symbol \$1rec;
#X obj 261 169 symbol;
#X text 285 123 send play to previous layer;
#X msg 261 149 symbol \$1play;
#X msg 261 189 \; \$1 1;
#X obj 260 94 t f b;
#X obj 261 122 f 1;
#X msg 128 80 reload;
#X obj 54 159 - 1;
#X obj 80 159 - 1;
#X obj 222 57 import pdlua;
#X obj 54 130 autolooplua;
#X floatatom 15 152 5 0 0 0 - - -, f 5;
#X floatatom 154 165 5 0 0 0 - - -, f 5;
#X floatatom 202 164 5 0 0 0 - - -, f 5;
#X obj 31 205 + 0;
#X connect 3 0 23 1;
#X connect 4 0 23 2;
#X connect 7 0 23 0;
#X connect 7 0 6 0;
#X connect 8 0 11 0;
#X connect 12 0 8 0;
#X connect 13 0 16 0;
#X connect 15 0 13 0;
#X connect 17 0 18 1;
#X connect 17 1 18 0;
#X connect 18 0 15 0;
#X connect 20 0 2 0;
#X connect 21 0 1 0;
#X connect 23 0 20 0;
#X connect 23 0 24 0;
#X connect 23 0 27 0;
#X connect 23 1 21 0;
#X connect 23 1 25 0;
#X connect 23 2 5 0;
#X connect 23 2 26 0;
#X connect 27 0 12 0;
#X connect 27 0 17 0;
#X restore 364 5 pd lua;
#N canvas 381 184 396 216 di 0;
#X obj 21 84 abs;
#X obj 66 84 abs;
#X obj 24 134 pack f f;
#X obj 66 64 - 8;
#X obj 21 64 - 8;
#X msg 24 158 \; . 0 \$2 \$1;
#X obj 21 20 inlet;
#X obj 66 20 inlet;
#X connect 0 0 2 1;
#X connect 1 0 2 0;
#X connect 2 0 5 0;
#X connect 3 0 1 0;
#X connect 4 0 0 0;
#X connect 6 0 4 0;
#X connect 7 0 3 0;
#X restore 291 184 pd di;
#X text 80 338 << control 2;
#X text 81 315 << control 1;
#X connect 20 0 19 0;
#X connect 20 0 18 0;
#X connect 20 0 17 0;
#X connect 20 0 16 0;
#X connect 20 0 15 0;
#X connect 20 0 14 0;
#X connect 20 0 13 0;
#X connect 20 0 12 0;
#X connect 21 0 137 0;
#X connect 22 0 24 0;
#X connect 22 0 71 0;
#X connect 22 0 54 0;
#X connect 22 0 51 0;
#X connect 22 0 20 0;
#X connect 22 0 83 0;
#X connect 22 0 84 0;
#X connect 22 0 85 0;
#X connect 23 0 137 1;
#X connect 24 0 21 0;
#X connect 24 0 23 0;
#X connect 33 0 22 0;
#X connect 42 0 41 0;
#X connect 42 0 40 0;
#X connect 42 0 39 0;
#X connect 42 0 38 0;
#X connect 42 0 37 0;
#X connect 42 0 36 0;
#X connect 42 0 35 0;
#X connect 42 0 34 0;
#X connect 51 0 43 0;
#X connect 51 0 44 0;
#X connect 51 0 45 0;
#X connect 51 0 46 0;
#X connect 51 0 47 0;
#X connect 51 0 48 0;
#X connect 51 0 49 0;
#X connect 51 0 50 0;
#X connect 54 0 56 0;
#X connect 54 0 58 0;
#X connect 54 0 60 0;
#X connect 54 0 62 0;
#X connect 54 0 64 0;
#X connect 54 0 66 0;
#X connect 54 0 68 0;
#X connect 54 0 70 0;
#X connect 71 0 53 0;
#X connect 81 0 136 0;
#X connect 82 0 33 0;
#X connect 83 0 72 0;
#X connect 84 0 52 0;
#X connect 85 0 25 0;
#X connect 85 0 26 0;
#X connect 85 0 27 0;
#X connect 85 0 28 0;
#X connect 85 0 29 0;
#X connect 85 0 30 0;
#X connect 85 0 31 0;
#X connect 85 0 32 0;
#X connect 94 0 25 0;
#X connect 95 0 26 0;
#X connect 96 0 27 0;
#X connect 97 0 28 0;
#X connect 98 0 30 0;
#X connect 99 0 31 0;
#X connect 100 0 32 0;
#X connect 101 0 29 0;
#X connect 103 0 100 0;
#X connect 103 0 99 0;
#X connect 103 0 101 0;
#X connect 103 0 96 0;
#X connect 103 0 95 0;
#X connect 103 0 94 0;
#X connect 103 0 98 0;
#X connect 103 0 97 0;
#X connect 104 0 72 0;
#X connect 106 0 52 0;
#X connect 107 0 109 0;
#X connect 107 0 110 0;
#X connect 107 0 111 0;
#X connect 107 0 112 0;
#X connect 107 0 113 0;
#X connect 107 0 114 0;
#X connect 107 0 115 0;
#X connect 107 0 116 0;
#X connect 121 0 120 0;
#X connect 122 0 120 1;
#X connect 123 0 120 2;
#X connect 128 0 131 0;
#X connect 129 0 131 1;
#X connect 130 0 131 2;
#X connect 132 0 134 0;
#X connect 133 0 132 0;
#X connect 135 0 132 0;
