#N canvas 61 110 465 605 10;
#X obj 101 101 cnv 15 216 609 empty empty empty 55 12 0 14 -191407
-66577 0;
#X obj 191 338 cnv 15 100 35 empty empty empty 20 12 0 14 -233017 -66577
0;
#X obj 106 337 ring;
#X obj 210 719 s~ lastR;
#X obj 107 717 s~ lastL;
#X obj 0 101 catch~ right;
#X obj -31 123 catch~ left;
#X obj 102 402 mdel 1000;
#X obj 215 400 frvb;
#X obj 191 374 dist~;
#X obj 257 375 dist~;
#X obj 201 341 hsl 80 15 1 6 0 1 empty empty empty 5 -6 0 8 -24198
-1 -1 0 1;
#X obj 198 358 nbx 5 14 1 800 0 0 dist_out empty empty 2 -6 0 8 -24198
-1 -1 79 256;
#N canvas 81 130 477 408 cuts 0;
#X obj 101 101 cnv 10 198 123 empty empty empty 20 12 0 14 -233017
-66577 0;
#X obj -10 331 bp~;
#X obj -83 331 bp~;
#X obj -82 238 lop~ 30000;
#X obj -10 239 lop~ 30000;
#X obj -81 61 inlet~;
#X obj -9 61 inlet~;
#X obj -82 363 outlet~;
#X obj -9 361 outlet~;
#X obj 126 127 vsl 15 75 0.01 1 1 0 empty empty high 0 -8 0 10 -257985
-1 -1 7400 1;
#X obj 256 128 vsl 15 75 0.01 1 1 0 empty empty cut 0 -8 0 10 -4034
-1 -1 1400 1;
#X obj 279 128 vsl 15 75 1 100 1 0 empty empty Q 0 -8 0 10 -260097
-1 -1 2200 1;
#X floatatom 105 207 7 0 0 0 - - -;
#X obj 105 127 vsl 15 75 0.01 1 1 1 empty empty low 0 -8 0 10 -260097
-1 -1 7400 1;
#X obj 157 37 - 0.01;
#X obj 157 58 * 31000;
#X obj 220 36 - 0.01;
#X obj 220 57 * 31000;
#X floatatom 159 207 7 0 0 0 - - -;
#X obj 305 161 - 0.01;
#X obj 305 180 * 31000;
#X floatatom 226 207 5 0 0 0 - - -;
#X floatatom 265 207 5 0 0 0 - - -;
#X obj 305 206 - 1;
#X msg 312 95 0;
#X obj 279 102 bng 15 250 50 0 empty empty empty 0 -6 0 10 -258113
-1 -1;
#X obj 106 102 bng 15 250 50 0 empty empty empty 0 -6 0 10 -258113
-1 -1;
#X obj 127 102 bng 15 250 50 0 empty empty empty 0 -6 0 10 -4034 -1
-1;
#X msg 22 135 0;
#X msg 50 135 1;
#X obj 148 104 grid grid1 100 0 1 100 0 1 0 0.01 0.01 0 0 635 500;
#X msg 23 159 0;
#X msg 51 159 1;
#X obj -10 270 hip~ 20;
#X obj -83 271 hip~ 20;
#X connect 1 0 8 0;
#X connect 2 0 7 0;
#X connect 3 0 34 0;
#X connect 4 0 33 0;
#X connect 5 0 3 0;
#X connect 6 0 4 0;
#X connect 9 0 16 0;
#X connect 10 0 19 0;
#X connect 11 0 23 0;
#X connect 12 0 3 1;
#X connect 12 0 4 1;
#X connect 13 0 14 0;
#X connect 14 0 15 0;
#X connect 15 0 12 0;
#X connect 16 0 17 0;
#X connect 17 0 18 0;
#X connect 18 0 33 1;
#X connect 18 0 34 1;
#X connect 19 0 20 0;
#X connect 20 0 21 0;
#X connect 21 0 1 1;
#X connect 21 0 2 1;
#X connect 22 0 1 2;
#X connect 22 0 2 2;
#X connect 23 0 22 0;
#X connect 24 0 11 0;
#X connect 25 0 24 0;
#X connect 26 0 28 0;
#X connect 26 0 29 0;
#X connect 27 0 31 0;
#X connect 27 0 32 0;
#X connect 28 0 13 0;
#X connect 29 0 9 0;
#X connect 30 0 9 0;
#X connect 30 1 13 0;
#X connect 31 0 9 0;
#X connect 32 0 13 0;
#X connect 33 0 1 0;
#X connect 34 0 2 0;
#X coords 0 -1 1 1 200 125 1 100 100;
#X restore 105 514 pd cuts;
#X obj 45 149 adc~;
#N canvas 0 22 452 302 (subpatch) 0;
#X array snd 441 float 0;
#X coords 0 1 440 -1 100 70 1;
#X restore 110 262 graph;
#X obj 215 315 tgl 15 1 empty empty empty 18 6 0 8 -260097 -1 -1 1
1;
#N canvas 0 0 326 265 pre 0;
#X obj 160 59 inlet;
#X floatatom 237 127 5 0 0 0 - - -;
#X obj 39 124 inlet~;
#X obj 156 157 tabwrite~ snd;
#X obj 156 134 metro 350;
#X connect 0 0 4 0;
#X connect 1 0 4 1;
#X connect 2 0 3 0;
#X connect 4 0 3 0;
#X restore 8 365 pd pre;
#N canvas 32 127 320 281 source 0;
#X obj 15 76 *~ 1;
#X obj 14 11 inlet~;
#X obj 57 12 inlet~;
#X obj 100 13 inlet~;
#X obj 143 14 inlet~;
#X obj 194 12 inlet;
#X obj 126 242 outlet~;
#X obj 25 243 outlet~;
#X obj 98 76 *~ 1;
#X obj 132 77 *~ 0;
#X obj 53 76 *~ 0;
#X obj 246 11 inlet;
#X obj 189 77 select 1 0;
#X obj 127 210 *~ 1;
#X msg 189 97 1;
#X msg 217 97 -1;
#X obj 215 121 i;
#X obj 189 143 select 2;
#X msg 189 165 0.5;
#X obj 25 208 *~ 1;
#X text 240 119 start on 1?;
#X obj 189 121 + 0;
#X connect 0 0 19 0;
#X connect 1 0 0 0;
#X connect 2 0 8 0;
#X connect 3 0 10 0;
#X connect 4 0 9 0;
#X connect 5 0 0 1;
#X connect 5 0 8 1;
#X connect 5 0 12 0;
#X connect 8 0 13 0;
#X connect 9 0 13 0;
#X connect 10 0 19 0;
#X connect 11 0 10 1;
#X connect 11 0 9 1;
#X connect 11 0 12 0;
#X connect 12 0 14 0;
#X connect 12 1 15 0;
#X connect 13 0 6 0;
#X connect 14 0 21 0;
#X connect 15 0 21 0;
#X connect 16 0 21 1;
#X connect 17 0 18 0;
#X connect 17 1 13 1;
#X connect 17 1 19 1;
#X connect 18 0 13 1;
#X connect 18 0 19 1;
#X connect 19 0 7 0;
#X connect 21 0 16 0;
#X connect 21 0 17 0;
#X coords 0 0 1 1 85 60 0;
#X restore -12 289 pd source;
#X text 257 358 dist;
#X obj 66 194 *~ 1;
#X obj 36 194 *~ 1;
#X obj 219 106 sli;
#X obj 0 165 *~ 1;
#X obj -31 164 *~ 1;
#X obj 107 106 sli;
#X text 248 115 snd_in;
#X text 137 113 throw;
#N canvas 495 89 450 300 limiters 0;
#X obj 245 18 inlet~;
#X obj 85 29 inlet~;
#X obj 254 233 outlet~;
#X obj 68 232 outlet~;
#X msg 40 68 help;
#X msg 17 108 print;
#X msg 334 52 LIMIT;
#X obj 254 131 limiter~;
#X obj 69 148 limiter~;
#X msg 206 59 limit 0.9;
#X msg 349 74 CRACK;
#X msg 350 96 COMPRESS;
#X floatatom 10 3 5 0 0 0 - - -;
#X floatatom 10 22 5 0 0 0 - - -;
#X floatatom 10 41 5 0 0 0 - - -;
#X obj 139 129 f;
#X obj 189 129 f;
#X obj 164 129 f;
#X msg 139 203 set \$0 \$1 \$2;
#X obj 139 184 pack f f f;
#X obj 151 155 bng 15 250 50 0 empty empty empty 17 7 0 10 -262144
-1 -1;
#X obj 52 2 vradio 15 1 0 3 empty empty empty 0 -8 0 10 -262144 -1
-1 0;
#X obj 335 7 select 0 1 2;
#X connect 0 0 7 0;
#X connect 1 0 8 0;
#X connect 4 0 8 0;
#X connect 5 0 8 0;
#X connect 6 0 7 0;
#X connect 6 0 8 0;
#X connect 7 0 2 0;
#X connect 8 0 3 0;
#X connect 9 0 7 0;
#X connect 9 0 8 0;
#X connect 10 0 7 0;
#X connect 10 0 8 0;
#X connect 11 0 7 0;
#X connect 11 0 8 0;
#X connect 12 0 16 0;
#X connect 13 0 17 0;
#X connect 14 0 15 0;
#X connect 15 0 19 0;
#X connect 16 0 19 2;
#X connect 16 0 20 0;
#X connect 17 0 19 1;
#X connect 17 0 20 0;
#X connect 18 0 7 0;
#X connect 18 0 8 0;
#X connect 19 0 18 0;
#X connect 20 0 19 0;
#X connect 21 0 22 0;
#X connect 22 0 6 0;
#X connect 22 1 10 0;
#X connect 22 2 11 0;
#X coords 0 -1 1 1 85 60 1 0 0;
#X restore 221 645 pd limiters;
#X obj 167 649 grid grid1 50 0 50 50 0 50 0 1 1 10 10 577 621;
#X obj 111 684 nbx 5 14 0 1 0 0 empty empty sym 0 -6 0 10 -262144 -1
-1 1 256;
#X obj 111 661 nbx 5 14 0 0.1 0 0 empty empty amp 0 -6 0 10 -262144
-1 -1 0.1 256;
#X obj 27 610 * 0.02;
#X obj 29 587 * 0.002;
#X obj -57 655 foldover~ 0 0;
#X obj -55 630 foldover~ 0 0;
#X msg 80 588 0;
#X obj 139 642 bng 15 250 50 0 empty empty empty 0 -6 0 10 -258113
-1 -1;
#X connect 2 0 9 0;
#X connect 2 1 10 0;
#X connect 5 0 23 0;
#X connect 6 0 24 0;
#X connect 7 0 8 0;
#X connect 7 1 8 1;
#X connect 8 0 13 0;
#X connect 8 1 13 1;
#X connect 9 0 7 0;
#X connect 10 0 7 1;
#X connect 11 0 12 0;
#X connect 12 0 10 1;
#X connect 12 0 9 1;
#X connect 13 0 35 0;
#X connect 13 1 34 0;
#X connect 14 0 21 0;
#X connect 14 1 20 0;
#X connect 16 0 17 1;
#X connect 18 0 17 0;
#X connect 18 0 2 0;
#X connect 18 1 17 0;
#X connect 18 1 2 1;
#X connect 20 0 18 3;
#X connect 21 0 18 2;
#X connect 22 0 20 1;
#X connect 22 0 21 1;
#X connect 22 1 18 5;
#X connect 23 0 18 1;
#X connect 24 0 18 0;
#X connect 25 0 23 1;
#X connect 25 0 24 1;
#X connect 25 1 18 4;
#X connect 29 0 33 0;
#X connect 29 1 32 0;
#X connect 30 0 34 2;
#X connect 30 0 35 2;
#X connect 31 0 34 1;
#X connect 31 0 35 1;
#X connect 32 0 30 0;
#X connect 33 0 31 0;
#X connect 34 0 3 0;
#X connect 35 0 4 0;
#X connect 36 0 31 0;
#X connect 36 0 30 0;
#X connect 37 0 36 0;
#X coords 0 -1 201 642 218 610 1 100 100;
