#N canvas 0 103 219 645 10;
#X obj -12 194 filters~;
#X obj 64 -169 r~ r;
#X obj 30 -170 r~ l;
#X obj 37 443 s~ lo;
#X obj 127 442 s~ ro;
#X obj 30 -2 ehu/del~ 1000;
#X obj 30 -145 ehu/ring~;
#X obj 30 71 ehu/rev~;
#X obj 37 348 ehu/foldover~;
#X obj 30 -75 ehu/distortion~;
#X connect 0 0 8 0;
#X connect 0 1 8 1;
#X connect 1 0 6 1;
#X connect 2 0 6 0;
#X connect 5 0 7 0;
#X connect 5 1 7 1;
#X connect 6 0 9 0;
#X connect 6 1 9 1;
#X connect 7 0 0 0;
#X connect 7 1 0 1;
#X connect 8 0 3 0;
#X connect 8 1 4 0;
#X connect 9 0 5 0;
#X connect 9 1 5 1;
