#N canvas 376 16 648 589 10;
#X obj 101 101 cnv 15 98 103 empty empty empty 20 12 0 14 -233017 -66577
0;
#X msg 131 333 roomsize \$1;
#X msg 131 418 damping \$1;
#X msg 131 382 width \$1;
#X msg 13 286 wet \$1;
#X msg 73 285 dry \$1;
#X msg 30 459 print;
#X msg 131 361 freeze \$1;
#X msg 131 399 bypass \$1;
#X obj 168 102 tgl 15 1 empty empty bypass 0 -6 0 8 -262144 -1 -1 1
1;
#X obj 131 102 tgl 15 0 empty empty freeze 0 -6 0 8 -262144 -1 -1 0
1;
#X text 253 365 - start and stop "freeze" mode (off by default). If
on \, reverb tail gets freezed (sample and hold).;
#X obj 134 183 hsl 60 18 0 1 0 1 empty empty wet-dry 2 9 1 12 -225271
-1 -1 2900 0;
#X obj 134 162 hsl 60 18 0 1 0 1 empty empty width 2 9 1 12 -262131
-1 -1 5900 0;
#X obj 134 141 hsl 60 18 0 2 0 1 empty empty damping 2 9 1 12 -261689
-1 -1 5900 0;
#X obj 134 120 hsl 60 18 0.11 1.1 0 1 empty empty roomsize 2 9 1 12
-261689 -1 -1 5900 0;
#X text 246 109 - size of the room to be simulated. Larger values result
in longer reverb. Values above 1 will result in feedback or 'room resonance'
(i.e. reverb getting louder);
#X floatatom 104 123 3 0 0 0 - - -;
#X text 245 201 - stereo width of the reverb \, i.e. how much of the
reverb part from the left and right channel mix. Turning this to 1
(nearly gives two separate mono reverbs.;
#X text 244 243 - level of the wet (reverbed) signal \, between 0 and
1;
#X text 212 288 - level of the dry (i.e. unprocessed or original) signal
\, between 0 and 1 Note that wet and dry signals mix and thus can cause
clipping if both are set at high levels.;
#X text 214 333 - print the current values of these parameters.;
#X text 273 390 - bypass reverb processing when set to 1 Can be used
to compare reverbed signal with original signal \, and to save CPU
when reverb is not needed.;
#X floatatom 104 145 3 0 0 0 - - -;
#X floatatom 104 167 3 0 0 0 - - -;
#X floatatom 104 187 3 0 0 0 - - -;
#X text 243 156 - amount of damping of the room's surfaces. <=1 means
nearly no damping \, resulting in a lot of reflection (long reverb)
\, >1 means high damping of signals (short reverb).;
#X obj 131 500 freeverb~;
#X obj 73 264 expr 1-$f1;
#X obj 168 33 r loadbang;
#X obj 212 452 inlet~;
#X obj 275 453 inlet~;
#X obj 207 548 outlet~;
#X obj 126 550 outlet~;
#X msg 168 56 1;
#X connect 1 0 27 0;
#X connect 2 0 27 0;
#X connect 3 0 27 0;
#X connect 4 0 27 0;
#X connect 5 0 27 0;
#X connect 6 0 27 0;
#X connect 7 0 27 0;
#X connect 8 0 27 0;
#X connect 9 0 8 0;
#X connect 10 0 7 0;
#X connect 12 0 25 0;
#X connect 12 0 28 0;
#X connect 12 0 4 0;
#X connect 13 0 3 0;
#X connect 13 0 24 0;
#X connect 14 0 2 0;
#X connect 14 0 23 0;
#X connect 15 0 1 0;
#X connect 15 0 17 0;
#X connect 27 0 33 0;
#X connect 27 1 32 0;
#X connect 28 0 5 0;
#X connect 29 0 34 0;
#X connect 30 0 27 0;
#X connect 31 0 27 1;
#X connect 34 0 9 0;
#X coords 0 -1 105 100 100 105 1 100 100;
