#N canvas 56 7 615 507 10;
#X obj 1 1 cnv 15 106 98 empty empty empty 20 12 0 14 -233017 -66577
0;
#X obj 140 223 *~ 0;
#X obj 3 4 vsl 15 75 0 1 0 0 empty empty feedbk 0 -8 0 7 -163777 -1
-1 4100 1;
#X floatatom 3 84 5 0 0 0 - - -;
#X obj 39 4 vsl 15 75 0 1000 0 0 empty echo2_length length 0 -8 0 7
-163777 -1 -1 147 1;
#X floatatom 39 84 5 0 0 0 - - -;
#X obj 176 202 delwrite~ \$0del \$1;
#X obj 177 225 delread~ \$0del \$1;
#X obj 20 67 tgl 15 0 empty empty empty 0 -6 0 10 -257985 -1 -1 0 1
;
#X obj 136 8 loadbang;
#X msg 207 85 range 0 \$1;
#X obj 136 27 \$1;
#X msg 180 104 set \$1;
#X obj 136 46 select 0;
#X obj 180 65 t f f;
#X msg 136 65 1000;
#X text 227 66 min 1000;
#X obj 305 229 *~ 0;
#X obj 343 206 delwrite~ \$0delR \$1;
#X obj 343 229 delread~ \$0delR \$1;
#X obj 60 324 expr 1-$f1;
#X obj 39 349 *~ 1;
#X obj 314 337 *~ 0;
#X obj 73 4 vsl 15 75 0 1 0 0 empty empty wet 0 -8 0 7 -163777 -1 -1
7400 1;
#X obj 90 67 tgl 15 0 empty empty empty 0 -6 0 10 -258113 -1 -1 1 1
;
#X floatatom 73 84 5 0 0 0 - - -;
#X obj 157 327 expr 1-$f1;
#X obj 136 352 *~ 1;
#X obj 262 337 *~ 0;
#X text 86 31 -;
#X text 65 31 -;
#X obj 329 163 inlet~;
#X obj 167 165 inlet~;
#X obj 77 444 outlet~;
#X obj 348 447 outlet~;
#X connect 1 0 6 0;
#X connect 2 0 3 0;
#X connect 3 0 1 1;
#X connect 3 0 17 1;
#X connect 4 0 5 0;
#X connect 5 0 7 0;
#X connect 5 0 19 0;
#X connect 7 0 1 0;
#X connect 7 0 28 0;
#X connect 8 0 2 0;
#X connect 9 0 11 0;
#X connect 10 0 4 0;
#X connect 11 0 13 0;
#X connect 12 0 4 0;
#X connect 13 0 15 0;
#X connect 13 1 14 0;
#X connect 14 0 12 0;
#X connect 14 1 10 0;
#X connect 15 0 14 0;
#X connect 17 0 18 0;
#X connect 19 0 17 0;
#X connect 19 0 22 0;
#X connect 20 0 21 1;
#X connect 21 0 33 0;
#X connect 22 0 34 0;
#X connect 23 0 25 0;
#X connect 24 0 23 0;
#X connect 25 0 22 1;
#X connect 25 0 20 0;
#X connect 25 0 26 0;
#X connect 25 0 28 1;
#X connect 26 0 27 1;
#X connect 27 0 34 0;
#X connect 28 0 33 0;
#X connect 31 0 18 0;
#X connect 31 0 27 0;
#X connect 32 0 6 0;
#X connect 32 0 21 0;
#X coords 0 -1 1 1 108 100 1 0 0;
