#N canvas 121 170 450 300 10;
#X obj 227 258 outlet~ right;
#X obj -9 272 outlet~ left;
#X obj 28 23 inlet;
#X obj 90 54 sampler 8;
#X obj 92 243 sampler 1;
#X obj 92 213 sampler 2;
#X obj 91 187 sampler 3;
#X obj 92 159 sampler 4;
#X obj 92 129 sampler 5;
#X obj 91 103 sampler 6;
#X obj 89 78 sampler 7;
#X connect 2 0 3 0;
#X connect 2 0 4 0;
#X connect 2 0 5 0;
#X connect 2 0 6 0;
#X connect 2 0 7 0;
#X connect 2 0 8 0;
#X connect 2 0 9 0;
#X connect 2 0 10 0;
#X connect 3 0 1 0;
#X connect 3 1 0 0;
#X connect 4 0 1 0;
#X connect 4 1 0 0;
#X connect 5 0 1 0;
#X connect 5 1 0 0;
#X connect 6 0 1 0;
#X connect 6 1 0 0;
#X connect 7 0 1 0;
#X connect 7 1 0 0;
#X connect 8 0 1 0;
#X connect 8 1 0 0;
#X connect 9 0 1 0;
#X connect 9 1 0 0;
#X connect 10 0 1 0;
#X connect 10 1 0 0;
