#N canvas 485 186 328 275 10;
#X obj 82 220 line;
#X obj 64 104 t b b;
#X obj 82 199 / 100;
#X obj 82 180 random 100;
#X obj 105 121 random 10000;
#X obj 36 170 delay;
#X obj 36 145 t b f;
#X msg 3 145 stop;
#X obj 64 20 inlet;
#X text 184 104 millisecs range;
#X text 150 143 millisecs min;
#X obj 142 23 inlet;
#X obj 184 23 inlet;
#X obj 64 43 select 1;
#X text 16 1 default values: min 4 secs \, max 14;
#X obj 82 246 s \$1rpan;
#X obj 105 149 + 6000;
#X obj 184 67 * 10;
#X obj 142 66 * 10;
#X connect 0 0 15 0;
#X connect 1 0 3 0;
#X connect 1 1 4 0;
#X connect 2 0 0 0;
#X connect 3 0 2 0;
#X connect 4 0 16 0;
#X connect 5 0 1 0;
#X connect 6 0 5 0;
#X connect 6 1 5 1;
#X connect 7 0 5 0;
#X connect 8 0 13 0;
#X connect 11 0 18 0;
#X connect 12 0 17 0;
#X connect 13 0 1 0;
#X connect 13 1 7 0;
#X connect 16 0 0 1;
#X connect 16 0 6 0;
#X connect 17 0 4 1;
#X connect 18 0 16 1;
