#N canvas 51 219 657 417 10;
#X msg 278 163 stop;
#X msg 370 135 1;
#X obj 268 48 select 1;
#X obj 334 358 *~ 1;
#X obj 491 231 r \$1rec;
#X obj 406 92 loadbang;
#X obj 491 258 t b b;
#X obj 550 30 table \$1snd;
#X obj 564 84 bng 15 250 50 0 empty \$1flush flush_snd 17 6 0 8 -262144
-1 -1;
#X obj 550 52 table \$1sndR;
#X obj 271 358 *~ 1;
#N canvas 223 167 762 471 flush 0;
#X msg 114 184 \; \$1 const 0;
#X obj 114 166 symbol;
#X msg 114 148 \$1snd;
#X obj 114 130 \$1;
#X obj 119 47 inlet;
#X msg 263 173 \; \$1 const 0;
#X obj 263 155 symbol;
#X obj 263 119 \$1;
#X msg 263 137 \$1sndR;
#X connect 1 0 0 0;
#X connect 2 0 1 0;
#X connect 3 0 2 0;
#X connect 4 0 3 0;
#X connect 4 0 7 0;
#X connect 6 0 5 0;
#X connect 7 0 8 0;
#X connect 8 0 6 0;
#X restore 564 103 pd flush;
#X obj 167 248 r \$1mode;
#X obj 288 213 r loopmode;
#X obj 343 48 select 1;
#X obj 292 329 r \$1vol;
#X obj 374 233 r \$1s;
#X obj 167 226 r \$1pitch;
#N canvas 113 368 360 335 xplayers 0;
#X obj 35 28 inlet;
#X obj 89 28 inlet;
#X obj 34 287 outlet~;
#X obj 141 288 outlet~;
#X obj 35 169 phasor~ 1;
#X obj 35 148 / 1;
#X obj 34 218 *~ 44100;
#X obj 141 251 tabread4~ \$1snd;
#X obj 34 251 tabread4~ \$1sndR;
#X obj 35 122 f 1;
#X obj 102 169 * 44100;
#X obj 60 97 t b f;
#X obj 79 198 - 2;
#X obj 60 74 f;
#X obj 134 29 inlet;
#X text 133 10 resize before recording if needed;
#X text 86 9 length;
#N canvas 319 207 466 316 resize 0;
#X obj 134 173 symbol;
#X msg 82 218 \; \$2 resize \$1;
#X obj 83 191 pack f s;
#X obj 134 128 \$1;
#X obj 83 112 t f b;
#X msg 134 151 symbol \$1snd;
#X text 92 96 resize sample;
#X obj 83 36 inlet;
#X obj 298 163 symbol;
#X msg 246 208 \; \$2 resize \$1;
#X obj 247 181 pack f s;
#X obj 298 118 \$1;
#X obj 247 102 t f b;
#X text 256 86 resize sample;
#X msg 299 141 symbol \$1sndR;
#X obj 83 70 * 44100;
#X connect 0 0 2 1;
#X connect 2 0 1 0;
#X connect 3 0 5 0;
#X connect 4 0 2 0;
#X connect 4 1 3 0;
#X connect 5 0 0 0;
#X connect 7 0 15 0;
#X connect 8 0 10 1;
#X connect 10 0 9 0;
#X connect 11 0 14 0;
#X connect 12 0 10 0;
#X connect 12 1 11 0;
#X connect 14 0 8 0;
#X connect 15 0 4 0;
#X connect 15 0 12 0;
#X restore 123 99 pd resize;
#X text 32 9 pitch;
#X connect 0 0 9 0;
#X connect 1 0 13 1;
#X connect 4 0 6 0;
#X connect 5 0 4 0;
#X connect 6 0 8 0;
#X connect 6 0 7 0;
#X connect 7 0 3 0;
#X connect 8 0 2 0;
#X connect 9 0 5 0;
#X connect 10 0 12 0;
#X connect 11 0 9 0;
#X connect 11 1 10 0;
#X connect 11 1 5 1;
#X connect 12 0 6 1;
#X connect 13 0 11 0;
#X connect 13 0 17 0;
#X connect 14 0 13 0;
#X restore 271 292 pd xplayers;
#X obj 343 23 r \$1pause;
#X obj 268 187 spigot 0;
#X obj 268 23 r \$1play;
#X msg 313 163 1;
#X obj 268 72 t b b b;
#X obj 446 334 tabwrite~ \$1sndR;
#X obj 553 334 tabwrite~ \$1snd;
#X msg 388 183 0;
#X obj 374 255 print \$1length;
#X obj 557 253 print REC;
#X msg 491 279 start 0;
#X text 332 52 1;
#X text 398 52 0;
#X obj 343 69 t b b;
#X obj 446 307 r~ iR;
#X obj 553 298 r~ iL;
#X obj 346 388 outlet~;
#X obj 267 388 outlet~;
#X obj 168 102 tgl 15 0 empty empty empty 17 7 0 10 -262144 -1 -1 1
1;
#X obj 168 45 inlet;
#X obj 95 30 loadbang;
#X connect 0 0 20 0;
#X connect 1 0 18 0;
#X connect 2 0 23 0;
#X connect 2 1 0 0;
#X connect 3 0 35 0;
#X connect 4 0 6 0;
#X connect 4 0 28 0;
#X connect 5 0 1 0;
#X connect 6 0 29 0;
#X connect 6 1 18 2;
#X connect 8 0 11 0;
#X connect 10 0 36 0;
#X connect 12 0 18 0;
#X connect 13 0 18 0;
#X connect 14 0 32 0;
#X connect 14 1 20 1;
#X connect 14 1 26 0;
#X connect 15 0 3 1;
#X connect 15 0 10 1;
#X connect 16 0 27 0;
#X connect 16 0 18 1;
#X connect 17 0 18 0;
#X connect 18 0 10 0;
#X connect 18 1 3 0;
#X connect 19 0 14 0;
#X connect 20 0 18 0;
#X connect 21 0 2 0;
#X connect 22 0 20 1;
#X connect 23 0 20 0;
#X connect 26 0 18 0;
#X connect 29 0 24 0;
#X connect 29 0 25 0;
#X connect 32 0 22 0;
#X connect 32 1 1 0;
#X connect 33 0 24 0;
#X connect 34 0 25 0;
#X connect 37 0 3 1;
#X connect 37 0 10 1;
#X connect 38 0 37 0;
#X connect 39 0 37 0;
#X coords 0 -1 1 1 85 20 1 100 100;
