#N canvas 46 244 693 485 10;
#X msg 94 158 stop;
#X msg 285 270 reset;
#X msg 299 224 loop \$1;
#X msg 189 190 1;
#X obj 84 43 select 1;
#X obj 252 386 *~ 1;
#X obj 263 407 r \$1pan;
#X obj 155 456 throw~ left;
#X obj 234 456 throw~ right;
#X obj 496 344 r \$1rec;
#X obj 198 144 loadbang;
#X obj 496 371 t b b;
#X obj 548 65 table \$1snd;
#X obj 437 72 bng 15 250 50 0 empty \$1flush flush_snd 17 6 0 8 -262144
-1 -1;
#X obj 285 249 r \$1reset;
#X obj 299 205 r \$1loop;
#X obj 548 87 table \$1sndR;
#X obj 189 386 *~ 1;
#N canvas 223 167 762 471 flush 0;
#X msg 114 184 \; \$1 const 0;
#X obj 114 166 symbol;
#X msg 114 148 \$1snd;
#X obj 114 130 \$1;
#X obj 119 47 inlet;
#X msg 263 173 \; \$1 const 0;
#X obj 263 155 symbol;
#X obj 263 119 \$1;
#X msg 263 137 \$1sndR;
#X connect 1 0 0 0;
#X connect 2 0 1 0;
#X connect 3 0 2 0;
#X connect 4 0 3 0;
#X connect 4 0 7 0;
#X connect 6 0 5 0;
#X connect 7 0 8 0;
#X connect 8 0 6 0;
#X restore 437 91 pd flush;
#X obj 188 424 gpan~;
#X obj 162 43 select 1;
#X obj 210 357 r \$1vol;
#X obj 316 292 r \$1s;
#X obj 20 352 r \$1pitch;
#N canvas 113 368 360 335 xplayers 0;
#X obj 35 28 inlet;
#X obj 89 28 inlet;
#X obj 34 287 outlet~;
#X obj 141 288 outlet~;
#X obj 35 169 phasor~ 1;
#X obj 35 148 / 1;
#X obj 34 218 *~ 44100;
#X obj 141 251 tabread4~ \$1snd;
#X obj 34 251 tabread4~ \$1sndR;
#X obj 35 122 f 1;
#X obj 102 169 * 44100;
#X obj 60 97 t b f;
#X obj 79 198 - 2;
#X obj 60 74 f;
#X obj 134 29 inlet;
#X text 133 10 resize before recording if needed;
#X text 86 9 length;
#N canvas 319 207 466 316 resize 0;
#X obj 134 173 symbol;
#X msg 82 218 \; \$2 resize \$1;
#X obj 83 191 pack f s;
#X obj 134 128 \$1;
#X obj 83 112 t f b;
#X msg 134 151 symbol \$1snd;
#X text 92 96 resize sample;
#X obj 83 36 inlet;
#X obj 298 163 symbol;
#X msg 246 208 \; \$2 resize \$1;
#X obj 247 181 pack f s;
#X obj 298 118 \$1;
#X obj 247 102 t f b;
#X text 256 86 resize sample;
#X msg 299 141 symbol \$1sndR;
#X obj 83 70 * 44100;
#X connect 0 0 2 1;
#X connect 2 0 1 0;
#X connect 3 0 5 0;
#X connect 4 0 2 0;
#X connect 4 1 3 0;
#X connect 5 0 0 0;
#X connect 7 0 15 0;
#X connect 8 0 10 1;
#X connect 10 0 9 0;
#X connect 11 0 14 0;
#X connect 12 0 10 0;
#X connect 12 1 11 0;
#X connect 14 0 8 0;
#X connect 15 0 4 0;
#X connect 15 0 12 0;
#X restore 123 99 pd resize;
#X text 32 9 pitch;
#X connect 0 0 9 0;
#X connect 1 0 13 1;
#X connect 4 0 6 0;
#X connect 5 0 4 0;
#X connect 6 0 8 0;
#X connect 6 0 7 0;
#X connect 7 0 3 0;
#X connect 8 0 2 0;
#X connect 9 0 5 0;
#X connect 10 0 12 0;
#X connect 11 0 9 0;
#X connect 11 1 10 0;
#X connect 11 1 5 1;
#X connect 12 0 6 1;
#X connect 13 0 11 0;
#X connect 13 0 17 0;
#X connect 14 0 13 0;
#X restore 189 335 pd xplayers;
#X obj 162 18 r \$1pause;
#X obj 84 182 spigot 0;
#X obj 84 18 r \$1play;
#X msg 129 158 1;
#X obj 84 67 t b b b;
#X obj 300 93 r mi;
#X obj 361 93 r fy;
#X obj 289 70 r rptoogle;
#X obj 300 150 s \$1rpitch;
#X obj 330 93 r pr;
#X obj 289 124 rpitch;
#X obj 451 447 tabwrite~ \$1sndR;
#X obj 558 447 tabwrite~ \$1snd;
#X msg 207 224 0;
#X obj 330 316 print \$1length;
#X obj 562 366 print REC;
#X msg 496 392 start 0;
#X obj 403 141 print rpitch;
#X obj 319 41 print RPTOOGLE;
#X text 151 47 1;
#X text 217 47 0;
#X obj 162 64 t b b;
#X obj 451 420 r~ iR;
#X obj 558 411 r~ iL;
#X obj 20 420 * 1;
#X obj 46 270 select 0;
#X obj 46 249 r \$1backwds;
#X msg 46 290 -1;
#X msg 77 289 1;
#X obj 20 395 f;
#X obj 46 313 t b f;
#X connect 0 0 26 0;
#X connect 3 0 24 0;
#X connect 4 0 29 0;
#X connect 4 1 0 0;
#X connect 5 0 19 1;
#X connect 6 0 19 2;
#X connect 9 0 11 0;
#X connect 9 0 40 0;
#X connect 10 0 3 0;
#X connect 11 0 41 0;
#X connect 11 1 24 2;
#X connect 13 0 18 0;
#X connect 14 0 1 0;
#X connect 15 0 2 0;
#X connect 17 0 19 0;
#X connect 19 0 7 0;
#X connect 19 1 8 0;
#X connect 20 0 46 0;
#X connect 20 1 26 1;
#X connect 20 1 38 0;
#X connect 21 0 5 1;
#X connect 21 0 17 1;
#X connect 22 0 39 0;
#X connect 22 0 24 1;
#X connect 23 0 54 0;
#X connect 24 0 17 0;
#X connect 24 1 5 0;
#X connect 25 0 20 0;
#X connect 26 0 24 0;
#X connect 27 0 4 0;
#X connect 28 0 26 1;
#X connect 29 0 26 0;
#X connect 29 1 1 0;
#X connect 29 2 35 0;
#X connect 30 0 35 1;
#X connect 31 0 35 3;
#X connect 32 0 35 0;
#X connect 32 0 43 0;
#X connect 34 0 35 2;
#X connect 35 0 42 0;
#X connect 38 0 24 0;
#X connect 41 0 36 0;
#X connect 41 0 37 0;
#X connect 46 0 28 0;
#X connect 46 1 3 0;
#X connect 47 0 36 0;
#X connect 48 0 37 0;
#X connect 49 0 24 0;
#X connect 50 0 52 0;
#X connect 50 1 53 0;
#X connect 51 0 50 0;
#X connect 52 0 55 0;
#X connect 53 0 55 0;
#X connect 54 0 49 0;
#X connect 55 0 54 0;
#X connect 55 1 49 1;
