#N canvas 73 118 422 251 10;
#X obj 4 70 cnv 15 3 66 empty empty empty 20 12 0 14 -24198 -66577
0;
#X obj 4 3 cnv 15 3 66 empty empty empty 20 12 0 14 -258699 -66577
0;
#X obj 27 121 nbx 4 15 0 100 0 0 empty empty level 0 -5 0 10 -241291
-1 -1 1 10;
#X obj 27 86 tgl 15 0 empty initON 1/0 0 -6 0 8 -258113 -1 -1 1 1;
#X obj 8 5 vsl 15 128 0 2 0 0 empty empty empty 0 -8 0 8 -241291 -1
-1 6350 1;
#X text 12 3 2;
#X text 11 122 0;
#X obj 80 0 inlet;
#X obj 27 169 outlet;
#X obj 79 169 outlet;
#X connect 2 0 8 0;
#X connect 3 0 4 0;
#X connect 3 0 9 0;
#X connect 4 0 2 0;
#X connect 7 0 4 0;
#X coords 0 -1 1 1 74 138 1 0 0;
